# xmcd CD database file
#
# Track frame offsets:
#	150
#	12420
#	38872
#	66955
#	96180
#	133802
#	169722
#	184987
#	209432
#	258180
#
# Disc length: 3691 seconds
#
# Revision: 5
# Processed by: cddbd v1.5.1PL0 Copyright (c) Steve Scherf et al.
# Submitted via: CDex 1.51
#
DISCID=8f0e690a
DTITLE=Frank Catalano - Cut It Out!
DYEAR=1998
DGENRE=Jazz
TTITLE0=Confirmation
TTITLE1=Love Vibrations
TTITLE2=Those Wacky Ways
TTITLE3=Willow Weep For Me
TTITLE4=Cut It Out!?!
TTITLE5=I Mean You
TTITLE6=God Made It Beautiful
TTITLE7=Party Time
TTITLE8=5:02 Blues
TTITLE9=Tenor Madness
EXTD=YEAR: 1998
EXTT0=
EXTT1=
EXTT2=
EXTT3=
EXTT4=
EXTT5=
EXTT6=
EXTT7=
EXTT8=
EXTT9=
PLAYORDER=
